<?xml version="1.0" standalone="no"?>
<!DOCTYPE svg PUBLIC "-//W3C//DTD SVG 20010904//EN"
 "http://www.w3.org/TR/2001/REC-SVG-20010904/DTD/svg10.dtd">
<svg version="1.0" xmlns="http://www.w3.org/2000/svg"
 width="155.000000pt" height="177.000000pt" viewBox="0 0 155.000000 177.000000"
 preserveAspectRatio="xMidYMid meet">

<g transform="translate(0.000000,177.000000) scale(0.100000,-0.100000)"
fill="#000000" stroke="none">
<path d="M103 1743 c-12 -2 -34 -18 -48 -34 l-25 -31 0 -775 0 -775 31 -29 31
-29 497 0 496 0 208 208 207 207 0 585 c0 551 -1 587 -19 620 -12 23 -30 39
-52 47 -25 9 -201 12 -669 11 -349 0 -645 -3 -657 -5z m1287 -628 l0 -525
-167 0 c-188 0 -208 -6 -235 -60 -15 -29 -18 -63 -18 -197 l0 -163 -420 0
-420 0 0 735 0 735 630 0 630 0 0 -525z m-40 -628 c0 -1 -61 -63 -135 -137
l-135 -135 0 138 0 137 135 0 c74 0 135 -1 135 -3z"/>
<path d="M220 1335 l0 -155 155 0 155 0 0 75 c0 41 -3 75 -7 75 -23 -1 -43
-30 -43 -64 l0 -36 -105 0 -105 0 0 106 0 105 114 -2 c117 -2 146 5 146 37 0
11 -30 14 -155 14 l-155 0 0 -155z"/>
<path d="M547 1440 c-25 -16 -63 -45 -86 -65 l-40 -37 -31 35 c-31 35 -31 36
-60 19 -17 -9 -30 -19 -30 -22 1 -3 15 -14 33 -25 20 -13 35 -33 42 -56 l10
-37 49 44 c27 25 89 64 137 88 81 40 87 44 71 58 -32 27 -49 27 -95 -2z"/>
<path d="M706 1364 c-9 -8 -16 -24 -16 -34 0 -10 7 -26 16 -34 13 -14 54 -16
289 -16 235 0 276 2 289 16 19 18 20 38 6 65 -10 18 -24 19 -290 19 -240 0
-281 -2 -294 -16z"/>
<path d="M220 915 l0 -155 155 0 155 0 0 80 0 80 -25 -16 c-20 -13 -25 -25
-25 -55 l0 -39 -105 0 -105 0 0 106 0 105 108 -2 c111 -1 152 8 152 36 0 13
-26 15 -155 15 l-155 0 0 -155z"/>
<path d="M520 1003 c-35 -27 -72 -55 -83 -63 -18 -13 -22 -11 -48 18 -29 33
-30 33 -58 16 l-29 -17 39 -37 c22 -21 39 -46 39 -59 0 -20 6 -17 58 25 56 46
181 114 212 114 19 1 -35 50 -54 50 -8 0 -42 -21 -76 -47z"/>
<path d="M710 950 c-11 -11 -20 -27 -20 -35 0 -8 9 -24 20 -35 19 -19 33 -20
283 -20 285 0 307 4 307 55 0 51 -22 55 -307 55 -250 0 -264 -1 -283 -20z"/>
<path d="M220 495 l0 -155 155 0 155 0 0 81 0 81 -22 -14 c-17 -11 -24 -27
-26 -57 l-3 -41 -105 0 -104 0 0 106 0 105 108 -2 c110 -1 152 9 152 38 0 10
-37 13 -155 13 l-155 0 0 -155z"/>
<path d="M565 618 c-11 -6 -49 -34 -84 -61 l-63 -51 -28 34 -28 34 -35 -19
-36 -19 30 -14 c31 -15 59 -57 59 -88 0 -14 7 -12 33 13 45 43 145 106 195
122 45 15 54 34 23 51 -25 13 -41 12 -66 -2z"/>
<path d="M707 532 c-21 -23 -22 -46 -1 -66 12 -13 38 -16 118 -16 l102 0 10
50 11 50 -112 0 c-96 0 -114 -3 -128 -18z"/>
</g>
</svg>
